<svg xmlns="http://www.w3.org/2000/svg" viewBox="0 0 260 210" role="img" aria-labelledby="title desc">
  <title id="title">Control Tower</title>
  <desc id="desc">Turquoise interlocking geometric control tower mark</desc>
  <defs>
    <linearGradient id="cyan" x1="0" y1="0" x2="1" y2="1">
      <stop offset="0" stop-color="#63e8f4"/>
      <stop offset="1" stop-color="#10d8d7"/>
    </linearGradient>
  </defs>
  <g fill="url(#cyan)">
    <path d="M82 28 126 3l25 15-44 25v48l-25 15-25-15V43zm0 29v25l8 5V51l44-25-8-5z"/>
    <path d="m178 32 25 15v49l-69 40-25-15 69-40V57l-18-10zm0 66-43 25 8 5 43-25V54l-8-5z"/>
    <path d="M116 54h42v18h-24v31h24v18h-42z"/>
  </g>
  <text x="130" y="180" text-anchor="middle" fill="#45ddeb"
        font-family="Arial Narrow, Bahnschrift Condensed, Arial, sans-serif"
        font-size="27" font-weight="800" letter-spacing="2">CONTROL TOWER</text>
</svg>
